<svg xmlns="http://www.w3.org/2000/svg" xmlns:svg="http://www.w3.org/2000/svg" id="svg2114" width="108.12" height="99.7" version="1.0" viewBox="0 0 2175.91 6924.178" xml:space="preserve"><metadata id="metadata17"/><g id="g2189" transform="matrix(69.45,0,0,69.45,-9738.1504,-21.170437)"><g id="g2202" transform="matrix(0.01031807,0,0,0.01031807,228.32455,-109.06528)"><path style="fill:#ccc;fill-opacity:1" id="path2204" d="m -3436.8,14543.2 c -848,-528 -2032,-856 -3328,-856 -2608,0 -4720,1304 -4720,2912 0,1472 1760,2680 4040,2888 v -848 c -1536,-192 -2688,-1032 -2688,-2040 0,-1144 1504,-2080 3368,-2080 928,0 1768,232 2376,608 l -864,536 h 2696 v -1664 z"/><path style="fill:#ff6200;fill-opacity:1" id="path2206" d="m -7444.8,12247.2 v 6392 848 l 1352,-848 v -7264 z"/></g></g></svg>